<?xml version="1.0" encoding="UTF-8"?>
<svg id="b" data-name="レイヤー_2" xmlns="http://www.w3.org/2000/svg" viewBox="0 0 1246.52 161.03">
  <defs>
    <style>
      .d {
        fill: #fff;
      }
    </style>
  </defs>
  <g id="c" data-name="レイヤー_1">
    <g>
      <path class="d" d="M303.47,131.15V6.06h-23.08v125.09c0,16.48,13.4,29.88,29.88,29.88h23.55v-23.08h-23.55c-3.75,0-6.79-3.05-6.79-6.8Z"/>
      <path class="d" d="M374.84,131.15V6.06h-23.08v125.09c0,16.48,13.4,29.88,29.88,29.88h23.55v-23.08h-23.55c-3.75,0-6.79-3.05-6.79-6.8Z"/>
      <path class="d" d="M995.03,131.15V6.06h-23.08v125.09c0,16.48,13.4,29.88,29.88,29.88h23.55v-23.08h-23.55c-3.75,0-6.79-3.05-6.79-6.8Z"/>
      <path class="d" d="M228.67,72.55h-64.7v88.48h94.87v-58.3c0-16.64-13.54-30.18-30.18-30.18ZM187.08,137.93v-42.27h41.59c3.9,0,7.07,3.17,7.07,7.07v35.2h-48.67Z"/>
      <path class="d" d="M919.44,72.55h-64.7v88.48h94.87v-58.3c0-16.64-13.54-30.18-30.18-30.18ZM877.85,137.93v-42.27h41.59c3.9,0,7.07,3.17,7.07,7.07v35.2h-48.67Z"/>
      <path class="d" d="M1114.45,38.51h-64.7v23.1h64.7c3.9,0,7.07,3.17,7.07,7.07v18.78c-2.27-.55-4.63-.85-7.07-.85h-64.7v74.42h57.87v-23.1h-34.77v-28.21h41.59c3.9,0,7.07,3.17,7.07,7.07l.02,44.24h23.08v-92.35c0-16.64-13.54-30.18-30.18-30.18Z"/>
      <g>
        <path class="d" d="M481.36,161.03h-25.94c-16.26,0-29.48-13.23-29.48-29.48v-65.26h23.02v65.26c0,3.56,2.9,6.46,6.46,6.46h25.94v23.02Z"/>
        <rect class="d" x="491.12" y="66.29" width="23.02" height="94.74"/>
      </g>
      <g>
        <path class="d" d="M537.11,97.23v3.15c0,16.42,13.36,29.79,29.79,29.79h18.76c3.79,0,6.88,3.09,6.88,6.88v2.42h-55.38v21.57h79.14v-23.99c0-16.89-13.74-30.64-30.64-30.64h-18.76c-3.33,0-6.03-2.71-6.03-6.03v-3.15h-23.76Z"/>
        <rect class="d" x="537.11" y="65.69" width="79.1" height="20.72"/>
      </g>
      <g>
        <rect class="d" x="0" y="36.5" width="22.84" height="124.53"/>
        <path class="d" d="M78.4,161.03h-23.34V33.39c0-3.81-.79-6.47-2.35-7.92-2.34-2.16-6.71-2.14-6.75-2.14l-.92.04H0V.03h44.73c3.03-.13,14.77-.06,23.82,8.31,4.5,4.15,9.85,11.87,9.85,25.06v127.64Z"/>
        <path class="d" d="M126.02,8.33C116.97-.03,105.23-.11,102.2.03h-23.36c4.76,4.82,9.83,12.33,11.82,23.34h11.85l.28.03.56-.06c1.27-.03,4.9.29,6.89,2.19,1.52,1.45,2.29,4.1,2.29,7.86v127.64h23.34V33.39c0-13.19-5.36-20.91-9.85-25.06Z"/>
      </g>
      <path class="d" d="M639.57,103.14v57.89h79.1v-23.1h-55.34v-34.79c0-3.77,3.07-6.83,6.83-6.83h48.51v-23.76h-48.51c-16.87,0-30.59,13.72-30.59,30.59Z"/>
      <path class="d" d="M1191.18,161.03v-57.89c0-3.77,3.07-6.83,6.83-6.83h48.51v-23.76h-48.51c-16.87,0-30.59,13.72-30.59,30.59v57.89h23.76Z"/>
      <path class="d" d="M804.28,72.55h-41.59V6.06h-23.1v154.97h23.1v-65.37h41.59c3.9,0,7.07,3.17,7.07,7.07v58.3h23.1v-58.3c0-16.64-13.54-30.18-30.18-30.18Z"/>
    </g>
  </g>
</svg>