<?xml version="1.0" encoding="UTF-8"?>
<svg id="b" data-name="レイヤー_2" xmlns="http://www.w3.org/2000/svg" viewBox="0 0 396.56 235.48">
  <defs>
    <style>
      .d {
        fill: #f2f2f2;
      }
    </style>
  </defs>
  <g id="c" data-name="レイヤー_1">
    <g>
      <path class="d" d="M67.71,160.45c-8.15,0-17.22,6.61-20.25,14.76-3.03,8.15,1.12,14.76,9.27,14.76s17.22-6.61,20.25-14.76c3.03-8.15-1.12-14.76-9.27-14.76Z"/>
      <path class="d" d="M87.63,0L0,235.48h308.93L396.56,0H87.63ZM171.44,12.39l6.42.08-1.83,4.75-2.48,6.45-6.21,16.07-6.42-.08,10.52-27.27ZM72.43,81.56l.68-1.83,2.55-6.84,4.41-11.86,9.72-26.11h29.53l3.52-9.46h-28.7l2.4-6.45h28.95l2.45-6.36,6.42.09-2.42,6.27h22.4c3.56,0,5.38,2.89,4.05,6.45h-28.94l-3.65,9.46h13.64c6.49,0,9.75,5.31,7.24,11.8l-9.28,23.93h-47.4l-3.38,9.09h44.3c3.56,0,5.38,2.89,4.05,6.45h-28.93l-3.57,9.26-6.42-.09,3.54-9.17h-28.87l1.72-4.62ZM103.54,170.89l-7.25,19.08-3.25,8.73-1.2,3.23-1.2,3.23H27.93l2.4-6.45h51.96l2.27-6.11h-49.95l10.26-26.89,7.29-5.31-3.27-5.21,2.84-7.45h51.82c4.87,0,7.31,3.98,5.43,8.85l-1.54,4.04-7.1,5.18,3.2,5.09ZM20.58,217.41l2.4-6.45h62.57c3.56,0,5.38,2.89,4.05,6.45H20.58ZM142.65,217.63l-6.42-.09,4.05-10.49h-24.02l-3.93,10.58-6.42-.09,6.24-16.76h30.55l12.27-31.77c1.16-3.01-.35-5.47-3.36-5.47h-18.39l-7.11,18.22h-6.44l7.1-18.22h-12.76l2.4-6.45h12.85l4.33-11.19,6.41.09-4.29,11.1h18.3c6.61,0,9.92,5.41,7.37,12.01l-18.75,48.52ZM190.54,95.44l-6.42-.08,7.18-18.82c.67-1.73-.2-3.14-1.93-3.14h-35.09l-8.25,21.6-6.42-.08s6.58-17.91,10.7-27.97c17.9-.32,26.06-9.01,33.23-27.03h-.09l2.4-6.45h16.36c6.44,0,9.68,5.26,7.21,11.7l-4.72,12.28-6.42-.08,4.71-12.24c1.1-2.87-.34-5.22-3.21-5.22h-9.77l-10.06,27.03h11.66c5.42,0,8.14,4.43,6.05,9.84l-7.11,18.65ZM203.66,217.63l-5.97-.09,5.81-15.61h-21.23l2.4-6.45h21.23l6.91-18.57h-19.7l11.55-31.05,6.51.09-9.12,24.5h20.47l9.23-24.79,6.42.09-9.19,24.7h3.49c3.56,0,5.38,2.89,4.05,6.45l-6.91,18.57-2.4,6.45h-17.7l-5.84,15.71ZM237.04,86.17c2.21-5.95,8.83-10.76,14.77-10.76s8.97,4.82,6.76,10.76c-2.21,5.95-8.83,10.76-14.77,10.76s-8.97-4.82-6.76-10.76ZM296.86,217.57h-86.52l2.4-6.45h80.16l17.2-44.52c1.15-2.97-.34-5.4-3.31-5.4h-5.45c2.86,1.79,3.92,5.46,2.35,9.69s-5.11,7.65-9.14,9.51c2.65,1.85,3.59,5.42,2.06,9.51-2.23,6-8.91,10.87-14.91,10.87s-9.06-4.87-6.82-10.87c1.52-4.09,5.11-7.65,9.14-9.51-2.65-1.85-3.59-5.42-2.06-9.51s5.36-7.9,9.56-9.69h-12.27l-17.09,45.93h-29.2l2.4-6.45h12.42l14.69-39.48h-8.08l-10.28,27.63h-5.59l10.28-27.63h-8.37l6.01-15.55,6.41.09-3.48,9h59.78c6.59,0,9.9,5.39,7.35,11.98l-19.64,50.84ZM364.39,45.08h-24.9l-14.38,38.26h17.95c3.56,0,5.38,2.89,4.05,6.45h-83.79l2.49-6.45h52.84l14.38-38.26h-32.26l-9.32,24.79h0s-26.61-18.94-26.61-18.94l-6.96,17.94-.08.21h0s-.16,0-.16,0h-20.85l2.86-7.68h14.68l6.32-16.32h-16.09l2.4-6.45h16.18l10.13-26.24,6.42.09-7.82,20.26,39.7-19.9h49.86c3.56,0,5.38,2.89,4.05,6.45h-54.48l-38.59,19.34h94.38l-2.4,6.45ZM346.75,25.95l-2.75,7.38h-6.45l2.75-7.38h6.45Z"/>
      <path class="d" d="M140.13,46.97c1.19-3.08-.36-5.59-3.43-5.59h-35.7l-6.59,17.41-.47,1.26,41.26.03,4.93-13.12ZM117.45,57.12c-3.53,0-5.33-2.86-4.01-6.39,1.31-3.53,5.24-6.39,8.77-6.39s5.33,2.86,4.01,6.39c-1.31,3.53-5.24,6.39-8.77,6.39Z"/>
    </g>
  </g>
</svg>